<svg xmlns="http://www.w3.org/2000/svg" viewBox="0 0 24 24">
    <path fill="#fff" d="M22.55 11.09L17.67 2A2.61 2.61 0 0016 .6a2.47 2.47 0 00-.7-.1 2.78 2.78 0 00-1.3.4L5 5.88a3 3 0 00-1.38 1.78l-2.41 8.39A2.55 2.55 0 003 19.33l14.25 4.05a2.41 2.41 0 003.16-1.76l2.35-8.26a3.07 3.07 0 00-.21-2.27z"></path>
    <path fill="#00ade6" d="M21.63 11.57l-4.77-8.9a1.88 1.88 0 00-2.58-.76L5.54 6.78A2 2 0 004.61 8l-2.34 8.1a1.83 1.83 0 001.23 2.28l13.77 3.92a1.8 1.8 0 002.25-1.25l2.28-8a2.07 2.07 0 00-.17-1.48z"></path>
    <path fill="#fff" d="M12.87 10.81c.77-1.11 1.48-2.22 2.79-2.22a2.25 2.25 0 012.25 2.24v6.55h-1.64v-6.2c0-.85-.69-.85-.69-.85-.56 0-1.57 1.38-2.7 2.92v4.13h-1.66v-1.91s-1.09 1.92-2.73 1.92C6.64 17.39 6 16.11 6 13.06S6.42 8.6 8.4 8.6c1.51 0 2.81 2.2 2.81 2.2V9.4l1.66-2.23s-.01 3.65 0 3.64zm-1.95 2.47s-1.51-2.95-2.49-2.95c-.76 0-.83.8-.83 2.73s.11 2.69.82 2.69c.97-.01 2.5-2.47 2.5-2.47z"></path>
</svg>