<svg xmlns="http://www.w3.org/2000/svg" viewBox="0 0 50 50">
    <path d="M0 23.337c.77.386 1.533.66 2.34.66 2.664 0 4.008-1.255 4.008-3.525V.592H18.02v19.14c0 4.611-7.028 7.463-12.76 7.463-2.495 0-3.947-.475-5.259-1.028v-2.83M48.698 26.654V.568h12.234l5.29 11.312L72.125.568h11.052v26.086H71.56v-15.03l-7.148 15.03H60.66l-7.14-15.257v15.257h-4.823M99.02 10.807c1.177-.042 2.374-.083 3.447-.71 1.175-.657 1.884-1.877 1.884-3.129 0-2.432-1.538-3.946-4.443-3.946-.335 0-.545.076-.889.076v7.71zm0 13.34c1.49.157 2.795-.084 4.033-1.216 1.073-.976 1.684-2.388 1.684-3.984 0-1.916-.784-3.566-2.134-4.618-1.241-.985-2.313-1.218-3.584-1.1v10.917zm-11.658 2.551V.593h12.95c7.09 0 12.704 1.21 12.704 6.367 0 2.626-1.127 4.581-5.23 5.138 5.545.729 6.183 3.654 6.158 6.9-.004 4.811-4.075 7.7-13.586 7.7H87.362zM131.667 24.622c2.8 0 3.514-4.584 3.514-10.993 0-6.43-.714-11.014-3.514-11.014-2.812 0-3.507 4.584-3.507 11.014 0 6.409.695 10.993 3.507 10.993M116.12 13.629c0-7.495 6.96-13.58 15.547-13.58 8.594 0 15.555 6.085 15.555 13.58 0 7.499-6.961 13.566-15.555 13.566-8.587 0-15.547-6.067-15.547-13.566M36.639 24.415c-2.407 0-3.085-2.4-3.085-4.29V.594H21.948V18.11c0 6.002 3.59 9.14 11.312 9.14 8.65 0 11.22-3.073 11.22-9.14V.593h-4.743V20.11c0 1.896-.658 4.304-3.098 4.304" data-v-574dfe24=""></path>
</svg>